<svg xmlns="http://www.w3.org/2000/svg" width="1000" height="220" viewBox="0 0 1000 220"><rect x="1" y="1" width="998" height="218" rx="10" fill="#0b0d16" stroke="#5f574f" stroke-width="2"/><defs><clipPath id="screen"><rect x="2" y="2" width="996" height="216" rx="9"/></clipPath></defs><g clip-path="url(#screen)"><g fill="#29adff" opacity="0.14"><rect x="44" y="20" width="1" height="180"/><rect x="68" y="20" width="1" height="180"/><rect x="92" y="20" width="1" height="180"/><rect x="116" y="20" width="1" height="180"/><rect x="140" y="20" width="1" height="180"/><rect x="164" y="20" width="1" height="180"/><rect x="188" y="20" width="1" height="180"/><rect x="212" y="20" width="1" height="180"/><rect x="236" y="20" width="1" height="180"/><rect x="260" y="20" width="1" height="180"/><rect x="284" y="20" width="1" height="180"/><rect x="308" y="20" width="1" height="180"/><rect x="332" y="20" width="1" height="180"/><rect x="356" y="20" width="1" height="180"/><rect x="380" y="20" width="1" height="180"/><rect x="404" y="20" width="1" height="180"/><rect x="428" y="20" width="1" height="180"/><rect x="452" y="20" width="1" height="180"/><rect x="476" y="20" width="1" height="180"/><rect x="500" y="20" width="1" height="180"/><rect x="524" y="20" width="1" height="180"/><rect x="548" y="20" width="1" height="180"/><rect x="572" y="20" width="1" height="180"/><rect x="596" y="20" width="1" height="180"/><rect x="620" y="20" width="1" height="180"/><rect x="644" y="20" width="1" height="180"/><rect x="668" y="20" width="1" height="180"/><rect x="692" y="20" width="1" height="180"/><rect x="716" y="20" width="1" height="180"/><rect x="740" y="20" width="1" height="180"/><rect x="764" y="20" width="1" height="180"/><rect x="788" y="20" width="1" height="180"/><rect x="812" y="20" width="1" height="180"/><rect x="836" y="20" width="1" height="180"/><rect x="860" y="20" width="1" height="180"/><rect x="884" y="20" width="1" height="180"/><rect x="908" y="20" width="1" height="180"/><rect x="932" y="20" width="1" height="180"/><rect x="956" y="20" width="1" height="180"/><rect x="20" y="44" width="960" height="1"/><rect x="20" y="68" width="960" height="1"/><rect x="20" y="92" width="960" height="1"/><rect x="20" y="116" width="960" height="1"/><rect x="20" y="140" width="960" height="1"/><rect x="20" y="164" width="960" height="1"/><rect x="20" y="188" width="960" height="1"/></g><g fill="#ff004d"><rect x="418" y="60" width="16" height="16"/><rect x="418" y="76" width="16" height="16"/><rect x="418" y="92" width="16" height="16"/><rect x="418" y="108" width="16" height="16"/><rect x="418" y="124" width="16" height="16"/><rect x="434" y="124" width="16" height="16"/><rect x="450" y="124" width="16" height="16"/><rect x="482" y="60" width="16" height="16"/><rect x="498" y="60" width="16" height="16"/><rect x="514" y="60" width="16" height="16"/><rect x="482" y="76" width="16" height="16"/><rect x="482" y="92" width="16" height="16"/><rect x="498" y="92" width="16" height="16"/><rect x="482" y="108" width="16" height="16"/><rect x="482" y="124" width="16" height="16"/><rect x="498" y="124" width="16" height="16"/><rect x="514" y="124" width="16" height="16"/><rect x="562" y="60" width="16" height="16"/><rect x="546" y="76" width="16" height="16"/><rect x="578" y="76" width="16" height="16"/><rect x="546" y="92" width="16" height="16"/><rect x="578" y="92" width="16" height="16"/><rect x="546" y="108" width="16" height="16"/><rect x="578" y="108" width="16" height="16"/><rect x="562" y="124" width="16" height="16"/></g><g fill="#ffec27"><rect x="412" y="54" width="16" height="16"/><rect x="412" y="70" width="16" height="16"/><rect x="412" y="86" width="16" height="16"/><rect x="412" y="102" width="16" height="16"/><rect x="412" y="118" width="16" height="16"/><rect x="428" y="118" width="16" height="16"/><rect x="444" y="118" width="16" height="16"/><rect x="476" y="54" width="16" height="16"/><rect x="492" y="54" width="16" height="16"/><rect x="508" y="54" width="16" height="16"/><rect x="476" y="70" width="16" height="16"/><rect x="476" y="86" width="16" height="16"/><rect x="492" y="86" width="16" height="16"/><rect x="476" y="102" width="16" height="16"/><rect x="476" y="118" width="16" height="16"/><rect x="492" y="118" width="16" height="16"/><rect x="508" y="118" width="16" height="16"/><rect x="556" y="54" width="16" height="16"/><rect x="540" y="70" width="16" height="16"/><rect x="572" y="70" width="16" height="16"/><rect x="540" y="86" width="16" height="16"/><rect x="572" y="86" width="16" height="16"/><rect x="540" y="102" width="16" height="16"/><rect x="572" y="102" width="16" height="16"/><rect x="556" y="118" width="16" height="16"/></g><g fill="#c2c3c7"><rect x="370" y="146" width="4" height="4"/><rect x="374" y="146" width="4" height="4"/><rect x="366" y="150" width="4" height="4"/><rect x="370" y="154" width="4" height="4"/><rect x="374" y="158" width="4" height="4"/><rect x="366" y="162" width="4" height="4"/><rect x="370" y="162" width="4" height="4"/><rect x="386" y="146" width="4" height="4"/><rect x="382" y="150" width="4" height="4"/><rect x="390" y="150" width="4" height="4"/><rect x="382" y="154" width="4" height="4"/><rect x="390" y="154" width="4" height="4"/><rect x="382" y="158" width="4" height="4"/><rect x="390" y="158" width="4" height="4"/><rect x="386" y="162" width="4" height="4"/><rect x="398" y="146" width="4" height="4"/><rect x="402" y="146" width="4" height="4"/><rect x="406" y="146" width="4" height="4"/><rect x="398" y="150" width="4" height="4"/><rect x="398" y="154" width="4" height="4"/><rect x="402" y="154" width="4" height="4"/><rect x="398" y="158" width="4" height="4"/><rect x="398" y="162" width="4" height="4"/><rect x="414" y="146" width="4" height="4"/><rect x="418" y="146" width="4" height="4"/><rect x="422" y="146" width="4" height="4"/><rect x="418" y="150" width="4" height="4"/><rect x="418" y="154" width="4" height="4"/><rect x="418" y="158" width="4" height="4"/><rect x="418" y="162" width="4" height="4"/><rect x="430" y="146" width="4" height="4"/><rect x="438" y="146" width="4" height="4"/><rect x="430" y="150" width="4" height="4"/><rect x="438" y="150" width="4" height="4"/><rect x="430" y="154" width="4" height="4"/><rect x="434" y="154" width="4" height="4"/><rect x="438" y="154" width="4" height="4"/><rect x="430" y="158" width="4" height="4"/><rect x="434" y="158" width="4" height="4"/><rect x="438" y="158" width="4" height="4"/><rect x="430" y="162" width="4" height="4"/><rect x="438" y="162" width="4" height="4"/><rect x="450" y="146" width="4" height="4"/><rect x="446" y="150" width="4" height="4"/><rect x="454" y="150" width="4" height="4"/><rect x="446" y="154" width="4" height="4"/><rect x="450" y="154" width="4" height="4"/><rect x="454" y="154" width="4" height="4"/><rect x="446" y="158" width="4" height="4"/><rect x="454" y="158" width="4" height="4"/><rect x="446" y="162" width="4" height="4"/><rect x="454" y="162" width="4" height="4"/><rect x="462" y="146" width="4" height="4"/><rect x="466" y="146" width="4" height="4"/><rect x="462" y="150" width="4" height="4"/><rect x="470" y="150" width="4" height="4"/><rect x="462" y="154" width="4" height="4"/><rect x="466" y="154" width="4" height="4"/><rect x="462" y="158" width="4" height="4"/><rect x="470" y="158" width="4" height="4"/><rect x="462" y="162" width="4" height="4"/><rect x="470" y="162" width="4" height="4"/><rect x="478" y="146" width="4" height="4"/><rect x="482" y="146" width="4" height="4"/><rect x="486" y="146" width="4" height="4"/><rect x="478" y="150" width="4" height="4"/><rect x="478" y="154" width="4" height="4"/><rect x="482" y="154" width="4" height="4"/><rect x="478" y="158" width="4" height="4"/><rect x="478" y="162" width="4" height="4"/><rect x="482" y="162" width="4" height="4"/><rect x="486" y="162" width="4" height="4"/><rect x="510" y="146" width="4" height="4"/><rect x="514" y="146" width="4" height="4"/><rect x="518" y="146" width="4" height="4"/><rect x="510" y="150" width="4" height="4"/><rect x="510" y="154" width="4" height="4"/><rect x="514" y="154" width="4" height="4"/><rect x="510" y="158" width="4" height="4"/><rect x="510" y="162" width="4" height="4"/><rect x="514" y="162" width="4" height="4"/><rect x="518" y="162" width="4" height="4"/><rect x="526" y="146" width="4" height="4"/><rect x="530" y="146" width="4" height="4"/><rect x="526" y="150" width="4" height="4"/><rect x="534" y="150" width="4" height="4"/><rect x="526" y="154" width="4" height="4"/><rect x="534" y="154" width="4" height="4"/><rect x="526" y="158" width="4" height="4"/><rect x="534" y="158" width="4" height="4"/><rect x="526" y="162" width="4" height="4"/><rect x="534" y="162" width="4" height="4"/><rect x="546" y="146" width="4" height="4"/><rect x="550" y="146" width="4" height="4"/><rect x="542" y="150" width="4" height="4"/><rect x="542" y="154" width="4" height="4"/><rect x="550" y="154" width="4" height="4"/><rect x="542" y="158" width="4" height="4"/><rect x="550" y="158" width="4" height="4"/><rect x="546" y="162" width="4" height="4"/><rect x="550" y="162" width="4" height="4"/><rect x="558" y="146" width="4" height="4"/><rect x="562" y="146" width="4" height="4"/><rect x="566" y="146" width="4" height="4"/><rect x="562" y="150" width="4" height="4"/><rect x="562" y="154" width="4" height="4"/><rect x="562" y="158" width="4" height="4"/><rect x="558" y="162" width="4" height="4"/><rect x="562" y="162" width="4" height="4"/><rect x="566" y="162" width="4" height="4"/><rect x="574" y="146" width="4" height="4"/><rect x="578" y="146" width="4" height="4"/><rect x="574" y="150" width="4" height="4"/><rect x="582" y="150" width="4" height="4"/><rect x="574" y="154" width="4" height="4"/><rect x="582" y="154" width="4" height="4"/><rect x="574" y="158" width="4" height="4"/><rect x="582" y="158" width="4" height="4"/><rect x="574" y="162" width="4" height="4"/><rect x="582" y="162" width="4" height="4"/><rect x="590" y="146" width="4" height="4"/><rect x="594" y="146" width="4" height="4"/><rect x="598" y="146" width="4" height="4"/><rect x="590" y="150" width="4" height="4"/><rect x="590" y="154" width="4" height="4"/><rect x="594" y="154" width="4" height="4"/><rect x="590" y="158" width="4" height="4"/><rect x="590" y="162" width="4" height="4"/><rect x="594" y="162" width="4" height="4"/><rect x="598" y="162" width="4" height="4"/><rect x="606" y="146" width="4" height="4"/><rect x="610" y="146" width="4" height="4"/><rect x="614" y="146" width="4" height="4"/><rect x="606" y="150" width="4" height="4"/><rect x="606" y="154" width="4" height="4"/><rect x="610" y="154" width="4" height="4"/><rect x="606" y="158" width="4" height="4"/><rect x="606" y="162" width="4" height="4"/><rect x="610" y="162" width="4" height="4"/><rect x="614" y="162" width="4" height="4"/><rect x="622" y="146" width="4" height="4"/><rect x="626" y="146" width="4" height="4"/><rect x="622" y="150" width="4" height="4"/><rect x="630" y="150" width="4" height="4"/><rect x="622" y="154" width="4" height="4"/><rect x="626" y="154" width="4" height="4"/><rect x="622" y="158" width="4" height="4"/><rect x="630" y="158" width="4" height="4"/><rect x="622" y="162" width="4" height="4"/><rect x="630" y="162" width="4" height="4"/></g></g></svg>