<svg xmlns="http://www.w3.org/2000/svg" width="560" height="248" viewBox="0 0 560 248"><rect x="1" y="1" width="558" height="246" rx="10" fill="#0b0d16" stroke="#5f574f" stroke-width="2"/><g fill="#29adff" opacity="0.16"><rect x="72" y="20" width="1" height="208"/><rect x="124" y="20" width="1" height="208"/><rect x="176" y="20" width="1" height="208"/><rect x="228" y="20" width="1" height="208"/><rect x="280" y="20" width="1" height="208"/><rect x="332" y="20" width="1" height="208"/><rect x="384" y="20" width="1" height="208"/><rect x="436" y="20" width="1" height="208"/><rect x="488" y="20" width="1" height="208"/><rect x="20" y="72" width="520" height="1"/><rect x="20" y="124" width="520" height="1"/><rect x="20" y="176" width="520" height="1"/></g><defs><clipPath id="screen"><rect x="2" y="2" width="556" height="244" rx="9"/></clipPath></defs><g clip-path="url(#screen)"><g><rect x="20" y="176" width="52" height="52" fill="#29adff" stroke="#0b0d16" stroke-width="2"/><rect x="24" y="180" width="44" height="5" fill="#89d2ff" opacity="0.65"/><rect x="24" y="185" width="5" height="39" fill="#89d2ff" opacity="0.65"/><rect x="29" y="219" width="39" height="5" fill="#196899" opacity="0.55"/><rect x="63" y="185" width="5" height="34" fill="#196899" opacity="0.55"/><rect x="72" y="176" width="52" height="52" fill="#29adff" stroke="#0b0d16" stroke-width="2"/><rect x="76" y="180" width="44" height="5" fill="#89d2ff" opacity="0.65"/><rect x="76" y="185" width="5" height="39" fill="#89d2ff" opacity="0.65"/><rect x="81" y="219" width="39" height="5" fill="#196899" opacity="0.55"/><rect x="115" y="185" width="5" height="34" fill="#196899" opacity="0.55"/><rect x="124" y="176" width="52" height="52" fill="#29adff" stroke="#0b0d16" stroke-width="2"/><rect x="128" y="180" width="44" height="5" fill="#89d2ff" opacity="0.65"/><rect x="128" y="185" width="5" height="39" fill="#89d2ff" opacity="0.65"/><rect x="133" y="219" width="39" height="5" fill="#196899" opacity="0.55"/><rect x="167" y="185" width="5" height="34" fill="#196899" opacity="0.55"/><rect x="176" y="176" width="52" height="52" fill="#29adff" stroke="#0b0d16" stroke-width="2"/><rect x="180" y="180" width="44" height="5" fill="#89d2ff" opacity="0.65"/><rect x="180" y="185" width="5" height="39" fill="#89d2ff" opacity="0.65"/><rect x="185" y="219" width="39" height="5" fill="#196899" opacity="0.55"/><rect x="219" y="185" width="5" height="34" fill="#196899" opacity="0.55"/><g fill="#0b0d16"><rect x="80" y="184" width="3" height="3"/><rect x="83" y="184" width="3" height="3"/><rect x="77" y="187" width="3" height="3"/><rect x="80" y="190" width="3" height="3"/><rect x="83" y="193" width="3" height="3"/><rect x="77" y="196" width="3" height="3"/><rect x="80" y="196" width="3" height="3"/><rect x="92" y="184" width="3" height="3"/><rect x="89" y="187" width="3" height="3"/><rect x="95" y="187" width="3" height="3"/><rect x="89" y="190" width="3" height="3"/><rect x="95" y="190" width="3" height="3"/><rect x="89" y="193" width="3" height="3"/><rect x="95" y="193" width="3" height="3"/><rect x="92" y="196" width="3" height="3"/><rect x="101" y="184" width="3" height="3"/><rect x="104" y="184" width="3" height="3"/><rect x="107" y="184" width="3" height="3"/><rect x="101" y="187" width="3" height="3"/><rect x="101" y="190" width="3" height="3"/><rect x="104" y="190" width="3" height="3"/><rect x="101" y="193" width="3" height="3"/><rect x="101" y="196" width="3" height="3"/><rect x="113" y="184" width="3" height="3"/><rect x="116" y="184" width="3" height="3"/><rect x="119" y="184" width="3" height="3"/><rect x="116" y="187" width="3" height="3"/><rect x="116" y="190" width="3" height="3"/><rect x="116" y="193" width="3" height="3"/><rect x="116" y="196" width="3" height="3"/><rect x="125" y="184" width="3" height="3"/><rect x="131" y="184" width="3" height="3"/><rect x="125" y="187" width="3" height="3"/><rect x="131" y="187" width="3" height="3"/><rect x="125" y="190" width="3" height="3"/><rect x="128" y="190" width="3" height="3"/><rect x="131" y="190" width="3" height="3"/><rect x="125" y="193" width="3" height="3"/><rect x="128" y="193" width="3" height="3"/><rect x="131" y="193" width="3" height="3"/><rect x="125" y="196" width="3" height="3"/><rect x="131" y="196" width="3" height="3"/><rect x="140" y="184" width="3" height="3"/><rect x="137" y="187" width="3" height="3"/><rect x="143" y="187" width="3" height="3"/><rect x="137" y="190" width="3" height="3"/><rect x="140" y="190" width="3" height="3"/><rect x="143" y="190" width="3" height="3"/><rect x="137" y="193" width="3" height="3"/><rect x="143" y="193" width="3" height="3"/><rect x="137" y="196" width="3" height="3"/><rect x="143" y="196" width="3" height="3"/><rect x="149" y="184" width="3" height="3"/><rect x="152" y="184" width="3" height="3"/><rect x="149" y="187" width="3" height="3"/><rect x="155" y="187" width="3" height="3"/><rect x="149" y="190" width="3" height="3"/><rect x="152" y="190" width="3" height="3"/><rect x="149" y="193" width="3" height="3"/><rect x="155" y="193" width="3" height="3"/><rect x="149" y="196" width="3" height="3"/><rect x="155" y="196" width="3" height="3"/><rect x="161" y="184" width="3" height="3"/><rect x="164" y="184" width="3" height="3"/><rect x="167" y="184" width="3" height="3"/><rect x="161" y="187" width="3" height="3"/><rect x="161" y="190" width="3" height="3"/><rect x="164" y="190" width="3" height="3"/><rect x="161" y="193" width="3" height="3"/><rect x="161" y="196" width="3" height="3"/><rect x="164" y="196" width="3" height="3"/><rect x="167" y="196" width="3" height="3"/></g><g fill="#0b0d16"><rect x="77" y="205" width="3" height="3"/><rect x="80" y="205" width="3" height="3"/><rect x="83" y="205" width="3" height="3"/><rect x="77" y="208" width="3" height="3"/><rect x="77" y="211" width="3" height="3"/><rect x="80" y="211" width="3" height="3"/><rect x="77" y="214" width="3" height="3"/><rect x="77" y="217" width="3" height="3"/><rect x="80" y="217" width="3" height="3"/><rect x="83" y="217" width="3" height="3"/><rect x="89" y="205" width="3" height="3"/><rect x="92" y="205" width="3" height="3"/><rect x="89" y="208" width="3" height="3"/><rect x="95" y="208" width="3" height="3"/><rect x="89" y="211" width="3" height="3"/><rect x="95" y="211" width="3" height="3"/><rect x="89" y="214" width="3" height="3"/><rect x="95" y="214" width="3" height="3"/><rect x="89" y="217" width="3" height="3"/><rect x="95" y="217" width="3" height="3"/><rect x="104" y="205" width="3" height="3"/><rect x="107" y="205" width="3" height="3"/><rect x="101" y="208" width="3" height="3"/><rect x="101" y="211" width="3" height="3"/><rect x="107" y="211" width="3" height="3"/><rect x="101" y="214" width="3" height="3"/><rect x="107" y="214" width="3" height="3"/><rect x="104" y="217" width="3" height="3"/><rect x="107" y="217" width="3" height="3"/><rect x="113" y="205" width="3" height="3"/><rect x="116" y="205" width="3" height="3"/><rect x="119" y="205" width="3" height="3"/><rect x="116" y="208" width="3" height="3"/><rect x="116" y="211" width="3" height="3"/><rect x="116" y="214" width="3" height="3"/><rect x="113" y="217" width="3" height="3"/><rect x="116" y="217" width="3" height="3"/><rect x="119" y="217" width="3" height="3"/><rect x="125" y="205" width="3" height="3"/><rect x="128" y="205" width="3" height="3"/><rect x="125" y="208" width="3" height="3"/><rect x="131" y="208" width="3" height="3"/><rect x="125" y="211" width="3" height="3"/><rect x="131" y="211" width="3" height="3"/><rect x="125" y="214" width="3" height="3"/><rect x="131" y="214" width="3" height="3"/><rect x="125" y="217" width="3" height="3"/><rect x="131" y="217" width="3" height="3"/><rect x="137" y="205" width="3" height="3"/><rect x="140" y="205" width="3" height="3"/><rect x="143" y="205" width="3" height="3"/><rect x="137" y="208" width="3" height="3"/><rect x="137" y="211" width="3" height="3"/><rect x="140" y="211" width="3" height="3"/><rect x="137" y="214" width="3" height="3"/><rect x="137" y="217" width="3" height="3"/><rect x="140" y="217" width="3" height="3"/><rect x="143" y="217" width="3" height="3"/><rect x="149" y="205" width="3" height="3"/><rect x="152" y="205" width="3" height="3"/><rect x="155" y="205" width="3" height="3"/><rect x="149" y="208" width="3" height="3"/><rect x="149" y="211" width="3" height="3"/><rect x="152" y="211" width="3" height="3"/><rect x="149" y="214" width="3" height="3"/><rect x="149" y="217" width="3" height="3"/><rect x="152" y="217" width="3" height="3"/><rect x="155" y="217" width="3" height="3"/><rect x="161" y="205" width="3" height="3"/><rect x="164" y="205" width="3" height="3"/><rect x="161" y="208" width="3" height="3"/><rect x="167" y="208" width="3" height="3"/><rect x="161" y="211" width="3" height="3"/><rect x="164" y="211" width="3" height="3"/><rect x="161" y="214" width="3" height="3"/><rect x="167" y="214" width="3" height="3"/><rect x="161" y="217" width="3" height="3"/><rect x="167" y="217" width="3" height="3"/></g><animateTransform attributeName="transform" type="translate" values="70 -648; 70 -648; 0 -648; 0 0; 0 0" keyTimes="0; 0.0167; 0.0417; 0.0833; 1" dur="12.0s" repeatCount="indefinite" calcMode="spline" keySplines="0 0 1 1; 0.3 0 0.7 1; 0.45 0 1 1; 0 0 1 1"/><animate attributeName="opacity" values="1; 1; 0.35; 1; 1; 0; 0; 0" keyTimes="0; 0.0833; 0.0867; 0.0933; 0.87; 0.91; 0.94; 1" dur="12.0s" repeatCount="indefinite"/></g><g><rect x="228" y="176" width="52" height="52" fill="#ff77a8" stroke="#0b0d16" stroke-width="2"/><rect x="232" y="180" width="44" height="5" fill="#ffb4cf" opacity="0.65"/><rect x="232" y="185" width="5" height="39" fill="#ffb4cf" opacity="0.65"/><rect x="237" y="219" width="39" height="5" fill="#994765" opacity="0.55"/><rect x="271" y="185" width="5" height="34" fill="#994765" opacity="0.55"/><rect x="280" y="176" width="52" height="52" fill="#ff77a8" stroke="#0b0d16" stroke-width="2"/><rect x="284" y="180" width="44" height="5" fill="#ffb4cf" opacity="0.65"/><rect x="284" y="185" width="5" height="39" fill="#ffb4cf" opacity="0.65"/><rect x="289" y="219" width="39" height="5" fill="#994765" opacity="0.55"/><rect x="323" y="185" width="5" height="34" fill="#994765" opacity="0.55"/><rect x="332" y="176" width="52" height="52" fill="#ff77a8" stroke="#0b0d16" stroke-width="2"/><rect x="336" y="180" width="44" height="5" fill="#ffb4cf" opacity="0.65"/><rect x="336" y="185" width="5" height="39" fill="#ffb4cf" opacity="0.65"/><rect x="341" y="219" width="39" height="5" fill="#994765" opacity="0.55"/><rect x="375" y="185" width="5" height="34" fill="#994765" opacity="0.55"/><rect x="280" y="124" width="52" height="52" fill="#ff77a8" stroke="#0b0d16" stroke-width="2"/><rect x="284" y="128" width="44" height="5" fill="#ffb4cf" opacity="0.65"/><rect x="284" y="133" width="5" height="39" fill="#ffb4cf" opacity="0.65"/><rect x="289" y="167" width="39" height="5" fill="#994765" opacity="0.55"/><rect x="323" y="133" width="5" height="34" fill="#994765" opacity="0.55"/><g fill="#0b0d16"><rect x="271" y="197" width="2" height="2"/><rect x="273" y="197" width="2" height="2"/><rect x="275" y="197" width="2" height="2"/><rect x="271" y="199" width="2" height="2"/><rect x="271" y="201" width="2" height="2"/><rect x="273" y="201" width="2" height="2"/><rect x="271" y="203" width="2" height="2"/><rect x="271" y="205" width="2" height="2"/><rect x="279" y="197" width="2" height="2"/><rect x="281" y="197" width="2" height="2"/><rect x="279" y="199" width="2" height="2"/><rect x="283" y="199" width="2" height="2"/><rect x="279" y="201" width="2" height="2"/><rect x="281" y="201" width="2" height="2"/><rect x="279" y="203" width="2" height="2"/><rect x="283" y="203" width="2" height="2"/><rect x="279" y="205" width="2" height="2"/><rect x="283" y="205" width="2" height="2"/><rect x="289" y="197" width="2" height="2"/><rect x="287" y="199" width="2" height="2"/><rect x="291" y="199" width="2" height="2"/><rect x="287" y="201" width="2" height="2"/><rect x="291" y="201" width="2" height="2"/><rect x="287" y="203" width="2" height="2"/><rect x="291" y="203" width="2" height="2"/><rect x="289" y="205" width="2" height="2"/><rect x="295" y="197" width="2" height="2"/><rect x="297" y="197" width="2" height="2"/><rect x="295" y="199" width="2" height="2"/><rect x="299" y="199" width="2" height="2"/><rect x="295" y="201" width="2" height="2"/><rect x="299" y="201" width="2" height="2"/><rect x="295" y="203" width="2" height="2"/><rect x="299" y="203" width="2" height="2"/><rect x="295" y="205" width="2" height="2"/><rect x="299" y="205" width="2" height="2"/><rect x="303" y="197" width="2" height="2"/><rect x="305" y="197" width="2" height="2"/><rect x="307" y="197" width="2" height="2"/><rect x="305" y="199" width="2" height="2"/><rect x="305" y="201" width="2" height="2"/><rect x="305" y="203" width="2" height="2"/><rect x="305" y="205" width="2" height="2"/><rect x="311" y="201" width="2" height="2"/><rect x="313" y="201" width="2" height="2"/><rect x="315" y="201" width="2" height="2"/><rect x="319" y="197" width="2" height="2"/><rect x="321" y="197" width="2" height="2"/><rect x="323" y="197" width="2" height="2"/><rect x="319" y="199" width="2" height="2"/><rect x="319" y="201" width="2" height="2"/><rect x="321" y="201" width="2" height="2"/><rect x="319" y="203" width="2" height="2"/><rect x="319" y="205" width="2" height="2"/><rect x="321" y="205" width="2" height="2"/><rect x="323" y="205" width="2" height="2"/><rect x="327" y="197" width="2" height="2"/><rect x="329" y="197" width="2" height="2"/><rect x="327" y="199" width="2" height="2"/><rect x="331" y="199" width="2" height="2"/><rect x="327" y="201" width="2" height="2"/><rect x="331" y="201" width="2" height="2"/><rect x="327" y="203" width="2" height="2"/><rect x="331" y="203" width="2" height="2"/><rect x="327" y="205" width="2" height="2"/><rect x="331" y="205" width="2" height="2"/><rect x="335" y="197" width="2" height="2"/><rect x="337" y="197" width="2" height="2"/><rect x="335" y="199" width="2" height="2"/><rect x="339" y="199" width="2" height="2"/><rect x="335" y="201" width="2" height="2"/><rect x="339" y="201" width="2" height="2"/><rect x="335" y="203" width="2" height="2"/><rect x="339" y="203" width="2" height="2"/><rect x="335" y="205" width="2" height="2"/><rect x="337" y="205" width="2" height="2"/></g><animateTransform attributeName="transform" type="translate" values="-70 -648; -70 -648; 0 -648; 0 0; 0 0" keyTimes="0; 0.0833; 0.1083; 0.1500; 1" dur="12.0s" repeatCount="indefinite" calcMode="spline" keySplines="0 0 1 1; 0.3 0 0.7 1; 0.45 0 1 1; 0 0 1 1"/><animate attributeName="opacity" values="1; 1; 0.35; 1; 1; 0; 0; 0" keyTimes="0; 0.1500; 0.1533; 0.1600; 0.87; 0.91; 0.94; 1" dur="12.0s" repeatCount="indefinite"/></g><g><rect x="332" y="124" width="52" height="52" fill="#ffa300" stroke="#0b0d16" stroke-width="2"/><rect x="336" y="128" width="44" height="5" fill="#ffcc73" opacity="0.65"/><rect x="336" y="133" width="5" height="39" fill="#ffcc73" opacity="0.65"/><rect x="341" y="167" width="39" height="5" fill="#996200" opacity="0.55"/><rect x="375" y="133" width="5" height="34" fill="#996200" opacity="0.55"/><rect x="384" y="124" width="52" height="52" fill="#ffa300" stroke="#0b0d16" stroke-width="2"/><rect x="388" y="128" width="44" height="5" fill="#ffcc73" opacity="0.65"/><rect x="388" y="133" width="5" height="39" fill="#ffcc73" opacity="0.65"/><rect x="393" y="167" width="39" height="5" fill="#996200" opacity="0.55"/><rect x="427" y="133" width="5" height="34" fill="#996200" opacity="0.55"/><rect x="384" y="176" width="52" height="52" fill="#ffa300" stroke="#0b0d16" stroke-width="2"/><rect x="388" y="180" width="44" height="5" fill="#ffcc73" opacity="0.65"/><rect x="388" y="185" width="5" height="39" fill="#ffcc73" opacity="0.65"/><rect x="393" y="219" width="39" height="5" fill="#996200" opacity="0.55"/><rect x="427" y="185" width="5" height="34" fill="#996200" opacity="0.55"/><rect x="436" y="176" width="52" height="52" fill="#ffa300" stroke="#0b0d16" stroke-width="2"/><rect x="440" y="180" width="44" height="5" fill="#ffcc73" opacity="0.65"/><rect x="440" y="185" width="5" height="39" fill="#ffcc73" opacity="0.65"/><rect x="445" y="219" width="39" height="5" fill="#996200" opacity="0.55"/><rect x="479" y="185" width="5" height="34" fill="#996200" opacity="0.55"/><g fill="#0b0d16"><rect x="363" y="145" width="2" height="2"/><rect x="365" y="145" width="2" height="2"/><rect x="361" y="147" width="2" height="2"/><rect x="363" y="149" width="2" height="2"/><rect x="365" y="151" width="2" height="2"/><rect x="361" y="153" width="2" height="2"/><rect x="363" y="153" width="2" height="2"/><rect x="369" y="145" width="2" height="2"/><rect x="371" y="145" width="2" height="2"/><rect x="373" y="145" width="2" height="2"/><rect x="369" y="147" width="2" height="2"/><rect x="369" y="149" width="2" height="2"/><rect x="371" y="149" width="2" height="2"/><rect x="369" y="151" width="2" height="2"/><rect x="369" y="153" width="2" height="2"/><rect x="371" y="153" width="2" height="2"/><rect x="373" y="153" width="2" height="2"/><rect x="377" y="145" width="2" height="2"/><rect x="379" y="145" width="2" height="2"/><rect x="377" y="147" width="2" height="2"/><rect x="381" y="147" width="2" height="2"/><rect x="377" y="149" width="2" height="2"/><rect x="381" y="149" width="2" height="2"/><rect x="377" y="151" width="2" height="2"/><rect x="381" y="151" width="2" height="2"/><rect x="377" y="153" width="2" height="2"/><rect x="381" y="153" width="2" height="2"/><rect x="385" y="145" width="2" height="2"/><rect x="387" y="145" width="2" height="2"/><rect x="389" y="145" width="2" height="2"/><rect x="387" y="147" width="2" height="2"/><rect x="387" y="149" width="2" height="2"/><rect x="387" y="151" width="2" height="2"/><rect x="385" y="153" width="2" height="2"/><rect x="387" y="153" width="2" height="2"/><rect x="389" y="153" width="2" height="2"/><rect x="395" y="145" width="2" height="2"/><rect x="393" y="147" width="2" height="2"/><rect x="397" y="147" width="2" height="2"/><rect x="393" y="149" width="2" height="2"/><rect x="397" y="149" width="2" height="2"/><rect x="393" y="151" width="2" height="2"/><rect x="397" y="151" width="2" height="2"/><rect x="395" y="153" width="2" height="2"/><rect x="401" y="145" width="2" height="2"/><rect x="403" y="145" width="2" height="2"/><rect x="401" y="147" width="2" height="2"/><rect x="405" y="147" width="2" height="2"/><rect x="401" y="149" width="2" height="2"/><rect x="403" y="149" width="2" height="2"/><rect x="401" y="151" width="2" height="2"/><rect x="405" y="151" width="2" height="2"/><rect x="401" y="153" width="2" height="2"/><rect x="405" y="153" width="2" height="2"/></g><animateTransform attributeName="transform" type="translate" values="70 -648; 70 -648; 0 -648; 0 0; 0 0" keyTimes="0; 0.1500; 0.1750; 0.2167; 1" dur="12.0s" repeatCount="indefinite" calcMode="spline" keySplines="0 0 1 1; 0.3 0 0.7 1; 0.45 0 1 1; 0 0 1 1"/><animate attributeName="opacity" values="1; 1; 0.35; 1; 1; 0; 0; 0" keyTimes="0; 0.2167; 0.2200; 0.2267; 0.87; 0.91; 0.94; 1" dur="12.0s" repeatCount="indefinite"/></g><g><rect x="436" y="72" width="52" height="52" fill="#00e436" stroke="#0b0d16" stroke-width="2"/><rect x="440" y="76" width="44" height="5" fill="#73f090" opacity="0.65"/><rect x="440" y="81" width="5" height="39" fill="#73f090" opacity="0.65"/><rect x="445" y="115" width="39" height="5" fill="#008920" opacity="0.55"/><rect x="479" y="81" width="5" height="34" fill="#008920" opacity="0.55"/><rect x="436" y="124" width="52" height="52" fill="#00e436" stroke="#0b0d16" stroke-width="2"/><rect x="440" y="128" width="44" height="5" fill="#73f090" opacity="0.65"/><rect x="440" y="133" width="5" height="39" fill="#73f090" opacity="0.65"/><rect x="445" y="167" width="39" height="5" fill="#008920" opacity="0.55"/><rect x="479" y="133" width="5" height="34" fill="#008920" opacity="0.55"/><rect x="488" y="124" width="52" height="52" fill="#00e436" stroke="#0b0d16" stroke-width="2"/><rect x="492" y="128" width="44" height="5" fill="#73f090" opacity="0.65"/><rect x="492" y="133" width="5" height="39" fill="#73f090" opacity="0.65"/><rect x="497" y="167" width="39" height="5" fill="#008920" opacity="0.55"/><rect x="531" y="133" width="5" height="34" fill="#008920" opacity="0.55"/><rect x="488" y="176" width="52" height="52" fill="#00e436" stroke="#0b0d16" stroke-width="2"/><rect x="492" y="180" width="44" height="5" fill="#73f090" opacity="0.65"/><rect x="492" y="185" width="5" height="39" fill="#73f090" opacity="0.65"/><rect x="497" y="219" width="39" height="5" fill="#008920" opacity="0.55"/><rect x="531" y="185" width="5" height="34" fill="#008920" opacity="0.55"/><g fill="#0b0d16"><rect x="459" y="145" width="2" height="2"/><rect x="461" y="145" width="2" height="2"/><rect x="457" y="147" width="2" height="2"/><rect x="457" y="149" width="2" height="2"/><rect x="461" y="149" width="2" height="2"/><rect x="457" y="151" width="2" height="2"/><rect x="461" y="151" width="2" height="2"/><rect x="459" y="153" width="2" height="2"/><rect x="461" y="153" width="2" height="2"/><rect x="467" y="145" width="2" height="2"/><rect x="465" y="147" width="2" height="2"/><rect x="469" y="147" width="2" height="2"/><rect x="465" y="149" width="2" height="2"/><rect x="467" y="149" width="2" height="2"/><rect x="469" y="149" width="2" height="2"/><rect x="465" y="151" width="2" height="2"/><rect x="469" y="151" width="2" height="2"/><rect x="465" y="153" width="2" height="2"/><rect x="469" y="153" width="2" height="2"/><rect x="473" y="145" width="2" height="2"/><rect x="477" y="145" width="2" height="2"/><rect x="473" y="147" width="2" height="2"/><rect x="475" y="147" width="2" height="2"/><rect x="477" y="147" width="2" height="2"/><rect x="473" y="149" width="2" height="2"/><rect x="475" y="149" width="2" height="2"/><rect x="477" y="149" width="2" height="2"/><rect x="473" y="151" width="2" height="2"/><rect x="477" y="151" width="2" height="2"/><rect x="473" y="153" width="2" height="2"/><rect x="477" y="153" width="2" height="2"/><rect x="481" y="145" width="2" height="2"/><rect x="483" y="145" width="2" height="2"/><rect x="485" y="145" width="2" height="2"/><rect x="481" y="147" width="2" height="2"/><rect x="481" y="149" width="2" height="2"/><rect x="483" y="149" width="2" height="2"/><rect x="481" y="151" width="2" height="2"/><rect x="481" y="153" width="2" height="2"/><rect x="483" y="153" width="2" height="2"/><rect x="485" y="153" width="2" height="2"/><rect x="497" y="145" width="2" height="2"/><rect x="499" y="145" width="2" height="2"/><rect x="497" y="147" width="2" height="2"/><rect x="501" y="147" width="2" height="2"/><rect x="497" y="149" width="2" height="2"/><rect x="501" y="149" width="2" height="2"/><rect x="497" y="151" width="2" height="2"/><rect x="501" y="151" width="2" height="2"/><rect x="497" y="153" width="2" height="2"/><rect x="499" y="153" width="2" height="2"/><rect x="505" y="145" width="2" height="2"/><rect x="507" y="145" width="2" height="2"/><rect x="509" y="145" width="2" height="2"/><rect x="505" y="147" width="2" height="2"/><rect x="505" y="149" width="2" height="2"/><rect x="507" y="149" width="2" height="2"/><rect x="505" y="151" width="2" height="2"/><rect x="505" y="153" width="2" height="2"/><rect x="507" y="153" width="2" height="2"/><rect x="509" y="153" width="2" height="2"/><rect x="513" y="145" width="2" height="2"/><rect x="517" y="145" width="2" height="2"/><rect x="513" y="147" width="2" height="2"/><rect x="517" y="147" width="2" height="2"/><rect x="513" y="149" width="2" height="2"/><rect x="517" y="149" width="2" height="2"/><rect x="513" y="151" width="2" height="2"/><rect x="517" y="151" width="2" height="2"/><rect x="515" y="153" width="2" height="2"/></g><animateTransform attributeName="transform" type="translate" values="-70 -648; -70 -648; 0 -648; 0 0; 0 0" keyTimes="0; 0.2167; 0.2417; 0.2833; 1" dur="12.0s" repeatCount="indefinite" calcMode="spline" keySplines="0 0 1 1; 0.3 0 0.7 1; 0.45 0 1 1; 0 0 1 1"/><animate attributeName="opacity" values="1; 1; 0.35; 1; 1; 0; 0; 0" keyTimes="0; 0.2833; 0.2867; 0.2933; 0.87; 0.91; 0.94; 1" dur="12.0s" repeatCount="indefinite"/></g><g><rect x="20" y="124" width="52" height="52" fill="#ffec27" stroke="#0b0d16" stroke-width="2"/><rect x="24" y="128" width="44" height="5" fill="#fff588" opacity="0.65"/><rect x="24" y="133" width="5" height="39" fill="#fff588" opacity="0.65"/><rect x="29" y="167" width="39" height="5" fill="#998e17" opacity="0.55"/><rect x="63" y="133" width="5" height="34" fill="#998e17" opacity="0.55"/><rect x="72" y="124" width="52" height="52" fill="#ffec27" stroke="#0b0d16" stroke-width="2"/><rect x="76" y="128" width="44" height="5" fill="#fff588" opacity="0.65"/><rect x="76" y="133" width="5" height="39" fill="#fff588" opacity="0.65"/><rect x="81" y="167" width="39" height="5" fill="#998e17" opacity="0.55"/><rect x="115" y="133" width="5" height="34" fill="#998e17" opacity="0.55"/><rect x="20" y="72" width="52" height="52" fill="#ffec27" stroke="#0b0d16" stroke-width="2"/><rect x="24" y="76" width="44" height="5" fill="#fff588" opacity="0.65"/><rect x="24" y="81" width="5" height="39" fill="#fff588" opacity="0.65"/><rect x="29" y="115" width="39" height="5" fill="#998e17" opacity="0.55"/><rect x="63" y="81" width="5" height="34" fill="#998e17" opacity="0.55"/><rect x="72" y="72" width="52" height="52" fill="#ffec27" stroke="#0b0d16" stroke-width="2"/><rect x="76" y="76" width="44" height="5" fill="#fff588" opacity="0.65"/><rect x="76" y="81" width="5" height="39" fill="#fff588" opacity="0.65"/><rect x="81" y="115" width="39" height="5" fill="#998e17" opacity="0.55"/><rect x="115" y="81" width="5" height="34" fill="#998e17" opacity="0.55"/><g fill="#0b0d16"><rect x="33" y="109" width="6" height="6"/><rect x="33" y="115" width="6" height="6"/><rect x="33" y="121" width="6" height="6"/><rect x="33" y="127" width="6" height="6"/><rect x="33" y="133" width="6" height="6"/><rect x="39" y="133" width="6" height="6"/><rect x="45" y="133" width="6" height="6"/><rect x="63" y="109" width="6" height="6"/><rect x="69" y="109" width="6" height="6"/><rect x="75" y="109" width="6" height="6"/><rect x="63" y="115" width="6" height="6"/><rect x="63" y="121" width="6" height="6"/><rect x="69" y="121" width="6" height="6"/><rect x="63" y="127" width="6" height="6"/><rect x="63" y="133" width="6" height="6"/><rect x="69" y="133" width="6" height="6"/><rect x="75" y="133" width="6" height="6"/><rect x="99" y="109" width="6" height="6"/><rect x="93" y="115" width="6" height="6"/><rect x="105" y="115" width="6" height="6"/><rect x="93" y="121" width="6" height="6"/><rect x="105" y="121" width="6" height="6"/><rect x="93" y="127" width="6" height="6"/><rect x="105" y="127" width="6" height="6"/><rect x="99" y="133" width="6" height="6"/></g><animateTransform attributeName="transform" type="translate" values="70 -596; 70 -596; 0 -596; 0 0; 0 0" keyTimes="0; 0.2833; 0.3083; 0.3500; 1" dur="12.0s" repeatCount="indefinite" calcMode="spline" keySplines="0 0 1 1; 0.3 0 0.7 1; 0.45 0 1 1; 0 0 1 1"/><animate attributeName="opacity" values="1; 1; 0.35; 1; 1; 0; 0; 0" keyTimes="0; 0.3500; 0.3533; 0.3600; 0.87; 0.91; 0.94; 1" dur="12.0s" repeatCount="indefinite"/></g><g><rect x="124" y="124" width="52" height="52" fill="#ff004d" stroke="#0b0d16" stroke-width="2"/><rect x="128" y="128" width="44" height="5" fill="#ff739d" opacity="0.65"/><rect x="128" y="133" width="5" height="39" fill="#ff739d" opacity="0.65"/><rect x="133" y="167" width="39" height="5" fill="#99002e" opacity="0.55"/><rect x="167" y="133" width="5" height="34" fill="#99002e" opacity="0.55"/><rect x="176" y="124" width="52" height="52" fill="#ff004d" stroke="#0b0d16" stroke-width="2"/><rect x="180" y="128" width="44" height="5" fill="#ff739d" opacity="0.65"/><rect x="180" y="133" width="5" height="39" fill="#ff739d" opacity="0.65"/><rect x="185" y="167" width="39" height="5" fill="#99002e" opacity="0.55"/><rect x="219" y="133" width="5" height="34" fill="#99002e" opacity="0.55"/><rect x="228" y="124" width="52" height="52" fill="#ff004d" stroke="#0b0d16" stroke-width="2"/><rect x="232" y="128" width="44" height="5" fill="#ff739d" opacity="0.65"/><rect x="232" y="133" width="5" height="39" fill="#ff739d" opacity="0.65"/><rect x="237" y="167" width="39" height="5" fill="#99002e" opacity="0.55"/><rect x="271" y="133" width="5" height="34" fill="#99002e" opacity="0.55"/><rect x="124" y="72" width="52" height="52" fill="#ff004d" stroke="#0b0d16" stroke-width="2"/><rect x="128" y="76" width="44" height="5" fill="#ff739d" opacity="0.65"/><rect x="128" y="81" width="5" height="39" fill="#ff739d" opacity="0.65"/><rect x="133" y="115" width="39" height="5" fill="#99002e" opacity="0.55"/><rect x="167" y="81" width="5" height="34" fill="#99002e" opacity="0.55"/><g fill="#fff1e8"><rect x="175" y="145" width="2" height="2"/><rect x="179" y="145" width="2" height="2"/><rect x="175" y="147" width="2" height="2"/><rect x="179" y="147" width="2" height="2"/><rect x="175" y="149" width="2" height="2"/><rect x="177" y="149" width="2" height="2"/><rect x="179" y="149" width="2" height="2"/><rect x="175" y="151" width="2" height="2"/><rect x="177" y="151" width="2" height="2"/><rect x="179" y="151" width="2" height="2"/><rect x="175" y="153" width="2" height="2"/><rect x="179" y="153" width="2" height="2"/><rect x="183" y="145" width="2" height="2"/><rect x="185" y="145" width="2" height="2"/><rect x="187" y="145" width="2" height="2"/><rect x="183" y="147" width="2" height="2"/><rect x="183" y="149" width="2" height="2"/><rect x="185" y="149" width="2" height="2"/><rect x="183" y="151" width="2" height="2"/><rect x="183" y="153" width="2" height="2"/><rect x="185" y="153" width="2" height="2"/><rect x="187" y="153" width="2" height="2"/><rect x="191" y="145" width="2" height="2"/><rect x="193" y="145" width="2" height="2"/><rect x="191" y="147" width="2" height="2"/><rect x="195" y="147" width="2" height="2"/><rect x="191" y="149" width="2" height="2"/><rect x="193" y="149" width="2" height="2"/><rect x="191" y="151" width="2" height="2"/><rect x="195" y="151" width="2" height="2"/><rect x="191" y="153" width="2" height="2"/><rect x="193" y="153" width="2" height="2"/><rect x="207" y="145" width="2" height="2"/><rect x="209" y="145" width="2" height="2"/><rect x="207" y="147" width="2" height="2"/><rect x="211" y="147" width="2" height="2"/><rect x="207" y="149" width="2" height="2"/><rect x="211" y="149" width="2" height="2"/><rect x="207" y="151" width="2" height="2"/><rect x="211" y="151" width="2" height="2"/><rect x="207" y="153" width="2" height="2"/><rect x="209" y="153" width="2" height="2"/><rect x="215" y="145" width="2" height="2"/><rect x="217" y="145" width="2" height="2"/><rect x="219" y="145" width="2" height="2"/><rect x="215" y="147" width="2" height="2"/><rect x="215" y="149" width="2" height="2"/><rect x="217" y="149" width="2" height="2"/><rect x="215" y="151" width="2" height="2"/><rect x="215" y="153" width="2" height="2"/><rect x="217" y="153" width="2" height="2"/><rect x="219" y="153" width="2" height="2"/><rect x="223" y="145" width="2" height="2"/><rect x="227" y="145" width="2" height="2"/><rect x="223" y="147" width="2" height="2"/><rect x="227" y="147" width="2" height="2"/><rect x="223" y="149" width="2" height="2"/><rect x="227" y="149" width="2" height="2"/><rect x="223" y="151" width="2" height="2"/><rect x="227" y="151" width="2" height="2"/><rect x="225" y="153" width="2" height="2"/></g><animateTransform attributeName="transform" type="translate" values="-70 -596; -70 -596; 0 -596; 0 0; 0 0" keyTimes="0; 0.3500; 0.3750; 0.4167; 1" dur="12.0s" repeatCount="indefinite" calcMode="spline" keySplines="0 0 1 1; 0.3 0 0.7 1; 0.45 0 1 1; 0 0 1 1"/><animate attributeName="opacity" values="1; 1; 0.35; 1; 1; 0; 0; 0" keyTimes="0; 0.4167; 0.4200; 0.4267; 0.87; 0.91; 0.94; 1" dur="12.0s" repeatCount="indefinite"/></g><rect x="20" y="124" width="520" height="104" fill="#fff1e8" opacity="0"><animate attributeName="opacity" values="0;0;0.9;0;0" keyTimes="0;0.875;0.91;0.94;1" dur="12.0s" repeatCount="indefinite"/></rect></g></svg>